HIERARCHY
ROOT joint_Root
{
	OFFSET 0.0 0.0 0.0
	CHANNELS 6 Xposition Yposition Zposition Zrotation Xrotation Yrotation 
	JOINT Hips
	{
		OFFSET -0.726466 93.3139 -2.00062
		CHANNELS 6 Xposition Yposition Zposition Zrotation Xrotation Yrotation 
		JOINT Spine
		{
			OFFSET 15.7357 0.0 0.0
			CHANNELS 6 Xposition Yposition Zposition Zrotation Xrotation Yrotation 
			JOINT Chest
			{
				OFFSET 8.98455 -0.406207 0.0
				CHANNELS 6 Xposition Yposition Zposition Zrotation Xrotation Yrotation 
				JOINT Neck
				{
					OFFSET 16.3773 0.0 0.0
					CHANNELS 6 Xposition Yposition Zposition Zrotation Xrotation Yrotation 
					JOINT Head
					{
						OFFSET 6.45672 0.0 0.0
						CHANNELS 6 Xposition Yposition Zposition Zrotation Xrotation Yrotation 
						End Site
						{
							OFFSET 0.0 0.0 0.0
						}
					}
				}
				JOINT Shoulder_L
				{
					OFFSET 12.9942 -0.242716 4.98039
					CHANNELS 6 Xposition Yposition Zposition Zrotation Xrotation Yrotation 
					JOINT UpperArm_L
					{
						OFFSET 5.34809 0.0 0.0
						CHANNELS 6 Xposition Yposition Zposition Zrotation Xrotation Yrotation 
						JOINT LowerArm_L
						{
							OFFSET 24.3286 1.87007e-05 0.0
							CHANNELS 6 Xposition Yposition Zposition Zrotation Xrotation Yrotation 
							JOINT Hand_L
							{
								OFFSET 22.2916 0.0 0.0
								CHANNELS 6 Xposition Yposition Zposition Zrotation Xrotation Yrotation 
								End Site
								{
									OFFSET 0.0 0.0 0.0
								}
							}
						}
					}
				}
				JOINT Shoulder_R
				{
					OFFSET 12.9945 -0.242716 -4.98039
					CHANNELS 6 Xposition Yposition Zposition Zrotation Xrotation Yrotation 
					JOINT UpperArm_R
					{
						OFFSET -5.34813 0.0 0.0
						CHANNELS 6 Xposition Yposition Zposition Zrotation Xrotation Yrotation 
						JOINT LowerArm_R
						{
							OFFSET -24.3289 0.000322201 0.0
							CHANNELS 6 Xposition Yposition Zposition Zrotation Xrotation Yrotation 
							JOINT Hand_R
							{
								OFFSET -22.2915 -0.000108084 0.0
								CHANNELS 6 Xposition Yposition Zposition Zrotation Xrotation Yrotation 
								End Site
								{
									OFFSET 0.0 0.0 0.0
								}
							}
						}
					}
				}
			}
		}
		JOINT UpperLeg_L
		{
			OFFSET -2.19248 -6.46944 0.0
			CHANNELS 6 Xposition Yposition Zposition Zrotation Xrotation Yrotation 
			JOINT LowerLeg_L
			{
				OFFSET 39.0811 0.0 -1.23785e-05
				CHANNELS 6 Xposition Yposition Zposition Zrotation Xrotation Yrotation 
				JOINT Foot_L
				{
					OFFSET 40.9854 0.0 -1.26872e-05
					CHANNELS 6 Xposition Yposition Zposition Zrotation Xrotation Yrotation 
					JOINT Toes_L
					{
						OFFSET 11.7543 0.0 0.0
						CHANNELS 6 Xposition Yposition Zposition Zrotation Xrotation Yrotation 
						End Site
						{
							OFFSET 0.0 0.0 0.0
						}
					}
				}
			}
		}
		JOINT UpperLeg_R
		{
			OFFSET -2.19251 6.46944 0.0
			CHANNELS 6 Xposition Yposition Zposition Zrotation Xrotation Yrotation 
			JOINT LowerLeg_R
			{
				OFFSET -39.0811 -0.00228153 -0.0401928
				CHANNELS 6 Xposition Yposition Zposition Zrotation Xrotation Yrotation 
				JOINT Foot_R
				{
					OFFSET -40.9854 0.0 0.0
					CHANNELS 6 Xposition Yposition Zposition Zrotation Xrotation Yrotation 
					JOINT Toes_R
					{
						OFFSET -11.7543 0.0 0.0
						CHANNELS 6 Xposition Yposition Zposition Zrotation Xrotation Yrotation 
						End Site
						{
							OFFSET 0.0 0.0 0.0
						}
					}
				}
			}
		}
	}
}
MOTION
Frames:	8
Frame Time:	0.0333333
0.000000 0.000000 0.000000 0.000000 0.000000 -0.000000 -0.804322 92.015800 -1.830010 87.604100 -1.220000 4.042450 15.735700 0.000005 -0.000001 87.237200 84.363000 -86.659200 8.984550 -0.406207 -0.000000 3.498100 -0.564276 1.171840 16.377300 -0.000001 -0.000001 -0.420232 -3.909980 1.947330 6.456720 -0.000001 -0.000000 -6.996300 -2.088680 -4.136000 12.994200 -0.242716 4.980390 -90.169200 0.584289 -73.852400 5.348090 -0.000007 -0.000001 -62.605300 47.725600 -18.000600 24.328600 0.000019 0.000005 3.894390 7.791340 -26.663400 22.291600 -0.000001 0.000005 6.465700 5.571480 -9.764200 12.994500 -0.242716 -4.980390 87.861800 6.433880 -71.572400 -5.348130 -0.000001 -0.000004 -63.756900 36.172100 -17.167200 -24.328900 0.000322 -0.000009 1.526230 4.711320 -17.984400 -22.291500 -0.000108 -0.000004 8.257730 5.534350 -7.987820 -2.192480 -6.469440 -0.000000 -169.063000 -14.527900 -2.175910 39.081100 -0.000007 -0.000012 -0.190851 0.465244 22.304600 40.985400 -0.000006 -0.000013 -5.636830 3.224610 -64.413600 11.754300 -0.000000 0.000003 -0.000041 -0.000472 -16.595900 -2.192510 6.469440 -0.000001 174.446000 20.100100 179.720000 -39.081100 -0.002282 -0.040193 -0.028695 0.088546 19.879000 -40.985400 0.000008 0.000006 -2.582480 2.819790 -63.550100 -11.754300 -0.000006 -0.000006 -0.006074 -0.071502 -19.483200
0.000000 0.000000 0.000000 0.000000 0.000000 -0.000000 -0.777515 92.021200 -1.836730 87.657500 -1.140720 4.124010 15.735700 0.000005 -0.000001 87.081400 84.296500 -86.532400 8.984550 -0.406207 -0.000000 3.629400 -0.599871 1.115760 16.377300 -0.000001 -0.000001 -0.598729 -3.797760 1.920880 6.456720 -0.000001 -0.000000 -7.113860 -1.920540 -4.243880 12.994200 -0.242716 4.980390 -90.145400 0.501544 -73.830000 5.348090 -0.000007 -0.000001 -62.014500 48.334600 -18.093000 24.328600 0.000019 0.000005 4.094080 7.826350 -27.727600 22.291600 -0.000001 0.000005 6.587210 5.575530 -9.973530 12.994500 -0.242716 -4.980390 87.806300 6.550790 -71.439600 -5.348130 -0.000001 -0.000004 -63.016800 33.777600 -17.461800 -24.328900 0.000322 -0.000009 1.442500 4.296280 -18.592700 -22.291500 -0.000108 -0.000004 8.750430 5.533510 -7.951870 -2.192480 -6.469440 -0.000000 -169.115000 -14.504600 -2.083400 39.081100 -0.000007 -0.000012 -0.190149 0.464910 22.245000 40.985400 -0.000006 -0.000013 -5.605520 3.289910 -64.376300 11.754300 -0.000000 0.000003 -0.000042 -0.000485 -16.596400 -2.192510 6.469440 -0.000001 174.347000 20.094600 179.820000 -39.081100 -0.002282 -0.040193 -0.026538 0.082611 19.872700 -40.985400 0.000008 0.000006 -2.550040 2.780970 -63.556800 -11.754300 -0.000006 -0.000006 -0.006025 -0.071066 -19.465400
0.000000 0.000000 0.000000 0.000000 0.000000 -0.000000 -0.736779 92.012300 -1.838190 87.658900 -1.128100 4.195410 15.735700 0.000005 -0.000001 86.583200 84.239800 -86.045900 8.984550 -0.406207 -0.000000 3.737730 -0.704562 1.096580 16.377300 -0.000001 -0.000001 -0.698620 -3.671370 1.936130 6.456720 -0.000001 -0.000000 -7.286390 -1.590750 -4.440860 12.994200 -0.242716 4.980390 -90.091200 0.315122 -73.862500 5.348090 -0.000007 -0.000001 -60.936600 49.585700 -18.020600 24.328600 0.000019 0.000005 4.396540 7.667290 -29.954100 22.291600 -0.000001 0.000005 6.889790 5.583180 -10.384300 12.994500 -0.242716 -4.980390 87.800400 6.525940 -71.327400 -5.348130 -0.000001 -0.000004 -62.003100 30.295000 -18.227000 -24.328900 0.000322 -0.000009 1.413920 4.116940 -18.986900 -22.291500 -0.000108 -0.000004 9.258880 5.526250 -7.631740 -2.192480 -6.469440 -0.000000 -169.130000 -14.469800 -2.056360 39.081100 -0.000007 -0.000012 -0.189972 0.462340 22.337600 40.985400 -0.000006 -0.000013 -5.579390 3.269800 -64.434600 11.754300 -0.000000 0.000003 -0.000034 -0.000408 -16.593500 -2.192510 6.469440 -0.000001 174.292000 20.099200 179.865000 -39.081100 -0.002282 -0.040193 -0.027723 0.085597 19.934700 -40.985400 0.000008 0.000006 -2.528530 2.771070 -63.580500 -11.754300 -0.000006 -0.000006 -0.006038 -0.071183 -19.470200
0.000000 0.000000 0.000000 0.000000 0.000000 -0.000000 -0.674543 92.017300 -1.879950 87.713900 -1.204350 4.168960 15.735700 0.000005 -0.000001 85.948700 84.219300 -85.445600 8.984550 -0.406207 -0.000000 3.770650 -0.833245 1.032440 16.377300 -0.000001 -0.000001 -0.804183 -3.529960 1.956480 6.456720 -0.000001 -0.000000 -7.364460 -1.158780 -4.652340 12.994200 -0.242716 4.980390 -90.016100 0.056178 -73.982100 5.348090 -0.000007 -0.000001 -59.115400 51.512200 -17.825400 24.328600 0.000019 0.000005 4.577340 6.915500 -33.625500 22.291600 -0.000001 0.000005 7.113990 5.598290 -11.236100 12.994500 -0.242716 -4.980390 87.810500 6.431400 -71.154400 -5.348130 -0.000001 -0.000004 -60.471100 26.232500 -19.579100 -24.328900 0.000322 -0.000009 1.437430 4.074430 -19.464900 -22.291500 -0.000108 -0.000004 9.533530 5.507980 -6.858150 -2.192480 -6.469440 -0.000000 -169.243000 -14.466900 -2.082540 39.081100 -0.000007 -0.000012 -0.190008 0.462914 22.316500 40.985400 -0.000006 -0.000013 -5.550650 3.182150 -64.425200 11.754300 -0.000000 0.000003 -0.000034 -0.000406 -16.593400 -2.192510 6.469440 -0.000001 174.235000 19.935100 179.786000 -39.081100 -0.002282 -0.040193 -0.027396 0.084739 19.925500 -40.985400 0.000008 0.000006 -2.627140 2.720090 -63.523300 -11.754300 -0.000006 -0.000006 -0.005959 -0.070461 -19.440700
0.000000 0.000000 0.000000 0.000000 0.000000 -0.000000 -0.615316 92.032600 -1.924080 87.719800 -1.279020 4.137170 15.735700 0.000005 -0.000001 85.098500 84.216400 -84.620500 8.984550 -0.406207 -0.000000 3.763790 -1.003700 0.987844 16.377300 -0.000001 -0.000001 -0.839313 -3.415770 1.952780 6.456720 -0.000001 -0.000000 -7.469050 -0.818653 -4.889160 12.994200 -0.242716 4.980390 -89.968200 -0.110464 -73.931900 5.348090 -0.000007 -0.000001 -55.813100 54.239800 -18.146300 24.328600 0.000019 0.000005 4.876960 6.110640 -38.711700 22.291600 -0.000001 0.000005 7.374020 5.619850 -12.605100 12.994500 -0.242716 -4.980390 87.843700 6.227770 -70.859000 -5.348130 -0.000001 -0.000004 -58.659200 21.569500 -21.424700 -24.328900 0.000322 -0.000009 1.311740 3.635150 -19.873700 -22.291500 -0.000108 -0.000004 9.635100 5.500120 -6.539530 -2.192480 -6.469440 -0.000000 -169.312000 -14.543000 -2.122620 39.081100 -0.000007 -0.000012 -0.187193 0.456755 22.285700 40.985400 -0.000006 -0.000013 -5.501890 3.139960 -64.388900 11.754300 -0.000000 0.000003 -0.000037 -0.000440 -16.594700 -2.192510 6.469440 -0.000001 174.256000 19.893600 179.701000 -39.081100 -0.002282 -0.040193 -0.020700 0.066333 19.907200 -40.985400 0.000008 0.000006 -2.394320 2.681630 -63.476300 -11.754300 -0.000006 -0.000006 -0.006106 -0.071794 -19.495100
0.000000 0.000000 0.000000 0.000000 0.000000 -0.000000 -0.556764 92.034200 -1.959230 87.682100 -1.519890 4.087640 15.735700 0.000005 -0.000001 84.936900 84.236000 -84.498100 8.984550 -0.406207 -0.000000 3.721620 -1.031510 0.910259 16.377300 -0.000001 -0.000001 -0.840582 -3.370050 1.998030 6.456720 -0.000001 -0.000000 -7.600010 -0.613448 -5.156040 12.994200 -0.242716 4.980390 -89.899800 -0.342994 -73.712400 5.348090 -0.000007 -0.000001 -51.640300 56.942500 -18.755800 24.328600 0.000019 0.000005 5.934820 5.974550 -44.957200 22.291600 -0.000001 0.000005 8.151430 5.640470 -14.144000 12.994500 -0.242716 -4.980390 87.906900 5.904520 -70.440500 -5.348130 -0.000001 -0.000004 -56.916700 16.356800 -23.444100 -24.328900 0.000322 -0.000009 1.149470 3.039170 -20.748000 -22.291500 -0.000108 -0.000004 9.837190 5.486870 -6.013770 -2.192480 -6.469440 -0.000000 -169.311000 -14.715100 -2.174900 39.081100 -0.000007 -0.000012 -0.188184 0.457599 22.354800 40.985400 -0.000006 -0.000013 -5.471720 3.072920 -64.431200 11.754300 -0.000000 0.000003 -0.000039 -0.000458 -16.595400 -2.192510 6.469440 -0.000001 174.320000 19.685900 179.574000 -39.081100 -0.002282 -0.040193 -0.018513 0.060329 19.896800 -40.985400 0.000008 0.000006 -2.352160 2.691550 -63.411400 -11.754300 -0.000006 -0.000006 -0.006142 -0.072120 -19.508400
0.000000 0.000000 0.000000 0.000000 0.000000 -0.000000 -0.481310 92.052900 -1.994030 87.717000 -1.725730 4.006360 15.735700 0.000005 -0.000001 84.930900 84.272700 -84.574800 8.984550 -0.406207 -0.000000 3.647450 -1.023590 0.743899 16.377300 -0.000001 -0.000001 -0.797841 -3.323120 2.015390 6.456720 -0.000001 -0.000000 -7.767730 -0.580954 -5.359000 12.994200 -0.242716 4.980390 -89.791400 -0.699390 -73.395300 5.348090 -0.000007 -0.000001 -46.467400 59.570200 -19.977000 24.328600 0.000019 0.000005 6.912480 5.471020 -51.823400 22.291600 -0.000001 0.000005 8.812550 5.653810 -15.392100 12.994500 -0.242716 -4.980390 88.020400 5.477610 -70.095000 -5.348130 -0.000001 -0.000004 -55.309500 10.694000 -25.526500 -24.328900 0.000322 -0.000009 0.959182 2.372530 -22.048100 -22.291500 -0.000108 -0.000004 10.257500 5.478090 -5.676700 -2.192480 -6.469440 -0.000000 -169.417000 -14.842200 -2.174510 39.081100 -0.000007 -0.000012 -0.186303 0.455352 22.251700 40.985400 -0.000006 -0.000013 -5.442730 2.939230 -64.401200 11.754300 -0.000000 0.000003 -0.000033 -0.000399 -16.593100 -2.192510 6.469440 -0.000001 174.286000 19.662600 179.467000 -39.081100 -0.002282 -0.040193 -0.014997 0.050864 19.806500 -40.985400 0.000008 0.000006 -2.284360 2.846590 -63.301500 -11.754300 -0.000006 -0.000006 -0.006196 -0.072601 -19.528000
0.000000 0.000000 0.000000 0.000000 0.000000 -0.000000 -0.431393 92.052400 -2.015760 87.692900 -2.036500 3.879850 15.735700 0.000005 -0.000001 85.371700 84.323400 -85.085000 8.984550 -0.406207 -0.000000 3.552910 -0.925485 0.601620 16.377300 -0.000001 -0.000001 -0.764164 -3.216190 1.896760 6.456720 -0.000001 -0.000000 -7.883960 -0.702231 -5.583140 12.994200 -0.242716 4.980390 -89.673800 -1.071760 -73.069800 5.348090 -0.000007 -0.000001 -40.512300 61.837700 -21.592600 24.328600 0.000019 0.000005 7.952410 4.796810 -59.086400 22.291600 -0.000001 0.000005 9.081350 5.663730 -16.508300 12.994500 -0.242716 -4.980390 88.180000 4.930570 -69.709900 -5.348130 -0.000001 -0.000004 -53.613800 5.205700 -28.138100 -24.328900 0.000322 -0.000009 0.806225 1.893640 -23.096100 -22.291500 -0.000108 -0.000004 11.130700 5.473500 -5.505090 -2.192480 -6.469440 -0.000000 -169.449000 -15.011400 -2.278140 39.081100 -0.000007 -0.000012 -0.185659 0.452446 22.310800 40.985400 -0.000006 -0.000013 -5.430630 2.813980 -64.457800 11.754300 -0.000000 0.000003 -0.000041 -0.000475 -16.596100 -2.192510 6.469440 -0.000001 174.343000 19.435800 179.274000 -39.081100 -0.002282 -0.040193 -0.016977 0.056445 19.779400 -40.985400 0.000008 0.000006 -2.338790 2.948440 -63.227400 -11.754300 -0.000006 -0.000006 -0.006077 -0.071535 -19.484500
